<svg id="Layer_1" data-name="Layer 1" xmlns="http://www.w3.org/2000/svg" viewBox="0 0 291.76 284.06"><defs><style>.cls-1{fill:#ebd145;}.cls-2{fill:#1f50a9;}.cls-3{fill:#f6be40;}.cls-4{fill:#f2cb48;}.cls-5{fill:#1d71d5;}.cls-6{fill:#29ccda;}.cls-7{fill:#f3be4a;}.cls-8{fill:#37d6d0;}.cls-9{fill:#d5da56;}.cls-10{fill:#48ddc2;}.cls-11{fill:#a4de70;}.cls-12{fill:#36d3c5;}.cls-13{fill:#23bedf;}.cls-14{fill:#c2dd61;}.cls-15{fill:#ebce57;}.cls-16{fill:#254c62;}.cls-17{fill:#65ddac;}.cls-18{fill:#1f4997;}.cls-19{fill:#294d60;}.cls-20{fill:#81dca1;}.cls-21{fill:#2586e2;}.cls-22{fill:#34c9da;}.cls-23{fill:#25d6e0;}.cls-24{fill:#40d7ce;}.cls-25{fill:#1d8bdc;}.cls-26{fill:#36d7cc;}.cls-27{fill:#cfdb68;}.cls-28{fill:#bcde70;}.cls-29{fill:#91e087;}.cls-30{fill:#82df8e;}.cls-31{fill:#a9e078;}.cls-32{fill:#94df87;}.cls-33{fill:#e3d550;}.cls-34{fill:#68dca9;}.cls-35{fill:#83de90;}.cls-36{fill:#7de094;}.cls-37{fill:#21c0d9;}.cls-38{fill:#74d3ce;}.cls-39{fill:#c6dd64;}.cls-40{fill:#25cee5;}.cls-41{fill:#aade74;}.cls-42{fill:#8fdc84;}.cls-43{fill:#19a3df;}.cls-44{fill:#9fdf7e;}.cls-45{fill:#89dd92;}.cls-46{fill:#d0da59;}.cls-47{fill:#62dbb2;}.cls-48{fill:#4adcbd;}.cls-49{fill:#5fdbaf;}.cls-50{fill:#22b2e6;}.cls-51{fill:#2665d3;}.cls-52{fill:#a9de7e;}.cls-53{fill:#7adc96;}.cls-54{fill:#bfdf7b;}.cls-55{fill:#68d8c7;}.cls-56{fill:#ebefea;}.cls-57{fill:#9cdfa4;}.cls-58{fill:#ebf0ee;}.cls-59{fill:#c3de67;}.cls-60{fill:#abdd70;}.cls-61{fill:#2cb1e0;}.cls-62{fill:#22a4e7;}.cls-63{fill:#eef3f5;}.cls-64{fill:#2abce9;}.cls-65{fill:#2a9ce6;}.cls-66{fill:#e5f2e8;}.cls-67{fill:#325471;}.cls-68{fill:#6ed9ae;}.cls-69{fill:#e9f1f4;}.cls-70{fill:#c4da84;}.cls-71{fill:#acdf9e;}.cls-72{fill:#48dbd4;}.cls-73{fill:#89d5c9;}.cls-74{fill:#51dada;}.cls-75{fill:#4ee1d8;}.cls-76{fill:#94c9ca;}.cls-77{fill:#d3dcaa;}.cls-78{fill:#fcfaf6;}.cls-79{fill:#f2f5f9;}.cls-80{fill:#f9fbfc;}.cls-81{fill:#fafbf7;}.cls-82{fill:#c1e066;}.cls-83{fill:#e0eef0;}.cls-84{fill:#ddecea;}.cls-85{fill:#f9fcfc;}</style></defs><path class="cls-1" d="M559.13,398.05v5.56c-2.87.1-4.26-1.75-5.78-3.06-2-1.74-3.31-1.32-5,.49-2.11,2.32-3.56,5.25-6.31,7-3.62,3.84-5.51,4-8.77.18s-7.11-7-7.11-12.57c0-1.67-.17-3.27.75-4.75,4-6.24,4-6.24-2.07-10.61a3,3,0,0,1-1.56-2.14c4.79-1.87,9.49-4.16,14.66-5.2,2,.75,3,2.44,4,4.25,3,5.93,7.71,10.82,10.06,17.13C553.25,397.64,557,396.39,559.13,398.05Z" transform="translate(-343.37 -364.9)"/><path class="cls-2" d="M473.86,536.25l2.87,2.84c1.48,1.92.69,4.15.71,6.22.1,8.49.11,17,0,25.46,0,1.32,1.28,4.3-2.37,3.1-3.31-2.16-6.6-4.37-9.94-6.48-1.46-.92-2.75-1.86-2.75-3.79,0-10.88,0-21.75,0-32.43,2.19-1.08,3.13.8,4.55.87C469.59,532.85,472.53,533.22,473.86,536.25Z" transform="translate(-343.37 -364.9)"/><path class="cls-3" d="M559.13,398.05c-6.26.74-6.16.26-9.44-6.17-3.36-6.59-7.76-12.66-11.71-18.95,6.26-3,12.82-5.19,19.31-7.6,2.08-.77,3.78-.74,3.45,2.13-1.08,9.39-.8,18.83-1,28.24A10.54,10.54,0,0,1,559.13,398.05Z" transform="translate(-343.37 -364.9)"/><path class="cls-4" d="M564.11,434.1c-5.53-4.32-12-7-18.13-10.14-1.57-.8-4.92-.74-3.35-4.16,1.67-3.65,3.56-4.53,7-2.48,6.34,3.79,13.67,5.76,19.42,10.6,2.13,1.24,2.53,3.16,2.49,5.48-.1,6.92,0,13.85-.08,20.77,0,1.46.95,3.65-1.41,4.12-1.88.37-2.88-1.28-3.75-2.71a23.25,23.25,0,0,1-1.61-3.6C564.08,446,565.11,440,564.11,434.1Z" transform="translate(-343.37 -364.9)"/><path class="cls-5" d="M436,519c4.56,10.61,10,20.61,18.2,29,2.92,3,1.39,6.85,1,10.64-13.21-11.07-23-24.37-27.31-41.33-.7-2,0-2.92,2.06-2.12C432.14,516,434.58,516.68,436,519Z" transform="translate(-343.37 -364.9)"/><path class="cls-6" d="M478,536.11a3,3,0,0,1-2.14-1.07c-2.33-1.27-5.46-1.23-6.83-4.11L463.47,527c5.64-3.47,10.92-6.74,16.23-9.94a3.19,3.19,0,0,1,3.33.24c3.31,1.92,6.67,3.76,9.89,5.81,2.3,1.45,2,3.21-.09,4.63-2.58,1.79-5.54,3-7.89,5.15C483.2,535.19,481.28,537.12,478,536.11Z" transform="translate(-343.37 -364.9)"/><path class="cls-7" d="M630.67,628.78c.47,2.19-.72,3.36-2.65,4a4.62,4.62,0,0,1-1.46.29c-4.85.09-10.79,2.24-13.66-3.09s-1-11.18,2-16.12,8.39-5.65,13.71-4.8c5.78.93,8.49,8.92,4.84,13.59-.8,1-1.75.61-2.71.6-3.33,0-6.66,0-10,0-1.44,0-3.26-.27-3.55,1.8-.3,2.25,1.23,3.47,3.15,3.8a16.65,16.65,0,0,0,7.89-.49A2.37,2.37,0,0,1,630.67,628.78Z" transform="translate(-343.37 -364.9)"/><path class="cls-8" d="M474.29,472.17c1.35.09,1.44,1,1.54,2.09,1.35,13.61,1.16,14.08-10.51,21.45-1.93,1.22-3.71,2.79-6.3,3.42-1.48-2.25-.39-4.84-1-7.14-2.57-5.64-1.69-9.79,3.16-12.84C465.39,476.51,469.48,473.64,474.29,472.17Z" transform="translate(-343.37 -364.9)"/><path class="cls-9" d="M527,390.88c-.56,7.41,3.59,12.65,8.16,17.69,2.56,2.83,4.74.78,7-.55-2.38,4.84-6.75,8-10.15,12-2.28,1.6-4.28.5-5.83-1a65,65,0,0,1-9-11.3A3.8,3.8,0,0,1,517,403C520.06,398.75,523.07,394.45,527,390.88Z" transform="translate(-343.37 -364.9)"/><path class="cls-10" d="M516.12,618c5.63-1.39,7.28-10.11,15.16-7.8-2.36,3.4-5.3,5.35-7.77,7.72-2.14,2.07-2.79,3.8-.91,6.39s3.3,5.28,5.07,8.18c-3.53,1.36-5.76.49-7.56-2.62-1.36-2.35-2.35-5.1-5.09-7a23.17,23.17,0,0,0-2.23,7.29c-.42,2.45-2,3.59-4.27,2.86s-1.2-2.67-.86-4.2c1.73-8,3.52-15.89,5.18-23.86.39-1.88.48-3.92,3.08-3.53,3.16.47,2,2.76,1.71,4.67C517.08,609.9,515.62,613.68,516.12,618Z" transform="translate(-343.37 -364.9)"/><path class="cls-11" d="M523.28,430.09c-2.13,3.82-5.21,6.84-8.26,9.89a12.52,12.52,0,0,1-4.83,4.49c-1.5-4.19.35-8.78-2.34-12.41-1.93-2.64-3.37-5.67-6.39-7.39-1.86-1.06-1.26-2.28-.11-3.6,2.92-3.33,5.77-6.73,8.64-10.1,1.87,6.15,7,10.1,10.39,15.19C521.29,427.51,522.65,428.53,523.28,430.09Z" transform="translate(-343.37 -364.9)"/><path class="cls-12" d="M438,424.88c-5.15,1.76-7.38,5-7,10.75.5,6.73,0,13.55-.14,20.32-2.69-.69-2-3-2.23-4.81-.32-2.23.46-4.65-1.93-7.76-2.33,8-.89,15.25-1.3,22.37.23,6.71.13,13.41.1,20.12-.46,2.41.59,5.18-1.7,7.15-1-1.53-.58-3.24-.58-4.87,0-19.63.14-39.26-.05-58.89,0-4.17,1.36-6.54,5.14-7.93,2.61-1,5.09-2.27,7.63-3.42C440.5,419.8,440.74,420.63,438,424.88Z" transform="translate(-343.37 -364.9)"/><path class="cls-13" d="M490.17,572.93c5.63,4.21,11.15,3.66,16.72-.2a22.63,22.63,0,0,1,4.05-1.76c2.06-.91,4-1.15,5.53,1,1,1.45,1.26,2.93-.44,4.15-4.91,3.38-10.36,5.75-15.8,8-4.56,1.92-8.15-1.65-11.78-3.49-3-1.55-1.17-5-1.33-7.68.89-7.18.24-14.39.34-21.59,0-2.3.42-4.2,2.48-5.46v0c3.53.57,3.29,2.11,1.07,4.16l-.93.93A77.6,77.6,0,0,0,490.17,572.93Z" transform="translate(-343.37 -364.9)"/><path class="cls-14" d="M523.28,430.09c-4.52-2-5.84-6.9-9.19-10-.72-.65-1.05-1.8-1.83-2.3-2.68-1.72-2.77-4.16-2.27-6.86q3.51-4,7-8c.22,5.29,4.64,8,7.2,11.86,1.92,2.89,3.94,5.23,7.73,5.12A40.11,40.11,0,0,1,523.28,430.09Z" transform="translate(-343.37 -364.9)"/><path class="cls-15" d="M595.51,633.29c-1.83-.09-3.66-.15-5.49-.3a1.84,1.84,0,0,1-1.9-2.33c.24-1.48.9-2.66,2.64-2.11,2.79.88,5.61.58,8.42.4a2.71,2.71,0,0,0,2.73-2.46c.12-1.37-1-2-2.16-2.39-1.42-.48-2.87-.86-4.27-1.39-2.39-.9-4.69-2.08-5.06-4.92s2.31-6.72,5.14-7.89c3.53-1.45,7.21-1,10.85-.76,1.37.11,2.73.67,2.58,2.42-.17,1.93-1.49,2.53-3.2,2.12-2.47-.59-4.89-.93-7.36,0-1.16.45-2.19,1-2.11,2.4.07,1.14,1,1.68,2,2s2.25.6,3.34,1c3,1,6.34,1.86,6.07,6.09A8.67,8.67,0,0,1,600,633.1a39.71,39.71,0,0,1-4.5,0Z" transform="translate(-343.37 -364.9)"/><path class="cls-16" d="M478.93,462c-4.68-1.64-8.61-4.72-13.06-6.81-1.72-.81-2-2.42-2-4.17q.12-5.92.2-11.84c.27-.62.64-1.22,1.35-1.29,6.33-.64,15.37,7.34,14.8,13.47C479.89,454.88,479.85,458.5,478.93,462Z" transform="translate(-343.37 -364.9)"/><path class="cls-17" d="M530.07,523.09c-4.61,4.36-10.34,6.9-16.9,11,0-6.83,0-12.53,0-18.23,0-2.1-.35-4.39,1.77-5.9,2.85-1.29,4.83.64,6.7,2.1C525.39,515,529.32,517.86,530.07,523.09Z" transform="translate(-343.37 -364.9)"/><path class="cls-18" d="M454,498.16l-12.8-8.24c-1.59-4.48-.4-9.1-.63-13.64-.08-1.52,1-1.94,2.38-1.43,1.92,1.15,3.51,2.93,5.92,3.2,7,1.7,8.28,3.45,8.1,10.74-.06,2.49-.7,4.93-.55,7.44C456.55,497.85,455.87,498.81,454,498.16Z" transform="translate(-343.37 -364.9)"/><path class="cls-19" d="M530,493a44.11,44.11,0,0,0-8.89-5.43c-3.09-1.4-4.72-3.31-4.28-6.9.32-2.62.09-5.31.18-8,.05-1.65.51-3,2.66-2.52,11.08,1.92,15.44,8.13,13.54,19.3C532.91,491.29,532.51,493.1,530,493Z" transform="translate(-343.37 -364.9)"/><path class="cls-20" d="M588.06,605.05c-1.74,8.28-3.46,16.56-5.23,24.83-.32,1.46-.76,2.9-2.47,3.46-1.13.37-2.26.81-3.32,0s-.52-1.72-.39-2.72c1-7.43,3.66-14.47,4.94-21.83A10.76,10.76,0,0,0,582,605c-1.56-1-2.93,1.17-4.65-.39a53.68,53.68,0,0,1,8.81-9.14c1.07-1,1.73.14,2,1.19C589,599.5,590.29,602.3,588.06,605.05Z" transform="translate(-343.37 -364.9)"/><path class="cls-21" d="M440.38,618.14c2.57,4,3,7.83-.39,11.57-1.74-.63-3.68-1-4.44-3,.25-3.57-1.69-4.64-4.92-4.47-1.81.1-3.62.39-5.46.34-1.73-.32-3.4-.73-4.17-2.59a62.57,62.57,0,0,1,3.08-15c2.36-.91,4.81-.28,7.22-.41,1.24-.07,2.74-.33,3.14,1.45.36,1.57-.58,2.41-1.87,3a7.13,7.13,0,0,0-2.17,1c-1.93,4-1.73,4.43,2.35,4.7a22.22,22.22,0,0,1,4.38.38A4.6,4.6,0,0,1,440.38,618.14Z" transform="translate(-343.37 -364.9)"/><path class="cls-22" d="M491,550.05c1.08-1.76,1.06-3.23-1.07-4.16.88-1.53,2.49-2.1,3.91-2.89,1.62-.91,2.49-2.17,2-4a2.77,2.77,0,0,0-3-2.14,3.27,3.27,0,0,0-3.38,3c-.09,2.54-1.47,3.92-3.33,5.07a4.25,4.25,0,0,0-2,4.18c.05,2.63-.09,5.26-.16,7.89-3.27-.77-1.39-3.57-2.09-5.36-.91,1.91-.91,1.91-2.36,1.35.4-5-.77-10,.68-14.88l0,.1c1.35-2.89,4.2-3.31,6.79-4.17l10.06-5.88c1.57,6.22.22,11.93-.15,17.54C496.75,548.15,493.71,549.52,491,550.05Z" transform="translate(-343.37 -364.9)"/><path class="cls-23" d="M495.88,633.3c-8.46,0-11.11-3.07-9.71-11.37,1.66-9.87,6.38-13.76,15.94-13,1.67.13,4.25-.4,4.26,2.2,0,2.8-2.5,1.94-4.19,1.94-7.67,0-10.8,3.09-11,10.83-.1,3.81,1,5.06,4.91,5.24a44.64,44.64,0,0,0,4.47-.17c1.06-.05,2.07,0,2.18,1.36a2.23,2.23,0,0,1-1.47,2.35C499.55,633.4,497.7,633.22,495.88,633.3Z" transform="translate(-343.37 -364.9)"/><path class="cls-24" d="M516,576.08c.25-4.36-.15-4.76-5.09-5.11,8.11-5.11,16.21-10.24,23.79-16.14,3.42.18,5.17,1.71,4.34,5.34A84.33,84.33,0,0,1,516,576.08Z" transform="translate(-343.37 -364.9)"/><path class="cls-25" d="M423.82,493c.1-2.33.21-4.65.31-7,2.46,1,3.16,5,6.81,3.95a113.11,113.11,0,0,0,5,29c-2.1-1.1-4.54-1.39-6.5-2.92-1.5-1.17-1.29.49-1.59,1.21C424.89,509.45,424.18,501.26,423.82,493Z" transform="translate(-343.37 -364.9)"/><path class="cls-26" d="M450.91,477.18c-2.53-2.14-6.44-2.44-8.06-6.35,2.59-2.52,5.95-4.08,9.19-5.81,7.06-1.94,13.78,4.36,12.07,11.31C458.89,482.06,456.19,482.24,450.91,477.18Z" transform="translate(-343.37 -364.9)"/><path class="cls-27" d="M566,619a2.88,2.88,0,0,0,1.85-3.63c-.45-1.77-2.06-2-3.54-2.23a14.68,14.68,0,0,0-5.43.53c-1.12.28-2.48.48-2.77-1.17-.25-1.42.12-2.9,1.73-3.12,4.27-.6,8.62-1.21,12.79.42,2.71,1.06,3.55,3.47,3.13,6.15-.81,5.08-1.64,10.17-2.83,15.17-.88,3.73-3.12,1.61-4.95.7-3.43-.67-1.86-2.67-1.2-4.44.39-1.25,1.08-2.49-.08-3.69-2.05-.93-5.16-.14-5.8-3.51C561.13,618.59,563.83,620.37,566,619Z" transform="translate(-343.37 -364.9)"/><path class="cls-28" d="M564.11,434.1c1.87,3.72.49,7.69.84,11.53.2,2.12.08,4.26.11,6.39,2.85,7.23,1,14.77,1.49,22.14-.83,14.75-.5,19.3,1.92,22.93,1.76-2.71.73-5.58,1.15-8.18.33-2.07-.9-4.79,2.2-5.83.79,9.29-.19,18.43-1.87,27.56-.31,1.73-2.09,2.58-1.88,4.38-5.33-.47-6.06-1.63-5.15-8.22C565.23,482.6,563.58,458.33,564.11,434.1Z" transform="translate(-343.37 -364.9)"/><path class="cls-29" d="M499,437.1c0,3-.39,6,0,9,.8,5.65-1.56,8.82-6.87,10.18-2.78-4.13-7.33-6.5-10.36-10.39,3.59-4.88,9.15-7.07,14-10.17C497,434.9,498.27,435.74,499,437.1Z" transform="translate(-343.37 -364.9)"/><path class="cls-30" d="M466,436c-.94-1.45-.44-2.44.94-3.25,2.72-1.61,5.23-3.57,8.21-4.71a2.35,2.35,0,0,1,2.33-.43c3.65,1,9,8.33,9.09,12.42-4,4.61-6.19,5.1-11.38,2.14C472,440.34,468.21,439.31,466,436Z" transform="translate(-343.37 -364.9)"/><path class="cls-31" d="M550,485l-15,9.09c-2,0-1.86-1.64-1.92-2.82-.2-4.1-.23-8.22,0-12.32.16-3.29,2.68-4.65,5.48-5.54,5.55,1.49,7.68,6.85,11.56,10.24A1,1,0,0,1,550,485Z" transform="translate(-343.37 -364.9)"/><path class="cls-32" d="M535.06,633.78c-2.12.05-3.17-.94-2.75-3.08q1.92-9.75,3.94-19.5a2.5,2.5,0,0,1,3.85-1.82c2.34,1.65,4.13.9,6.32,0,1.57-.62,3.9-1.48,4.53,1s-1.18,3.27-3.55,3.51c-5.6.55-6.65,1.68-7.46,7.35-.49,3.45-2.07,6.66-2.18,10.21C537.7,633.15,536.6,633.79,535.06,633.78Z" transform="translate(-343.37 -364.9)"/><path class="cls-33" d="M565.08,475l0-23c2.69.93,2,4.9,5,5.63,1.52-.95,1-2.41,1-3.62.06-6.41-.07-12.83.09-19.25a10.07,10.07,0,0,0-2-6.86c2.44.45,3.1,2.08,3.08,4.35-.13,11.27-.2,22.54-.29,33.81-.72,3.4-.12,6.85-.35,10.28-.11,1.65.77,4-2,4.25-2.14.21-3.16-1.32-3.66-3.26A7.27,7.27,0,0,0,565.08,475Z" transform="translate(-343.37 -364.9)"/><path class="cls-34" d="M515.09,507.05a4.53,4.53,0,0,1-5.07-.12c-4.19-2.58-8.49-5-13.22-7.75a29.47,29.47,0,0,1,10-6.28c4.84,0,11.22,6.35,11.8,11.68C518,506.24,516.07,505.94,515.09,507.05Z" transform="translate(-343.37 -364.9)"/><path class="cls-35" d="M518,504.68c-1.83-5.72-6.24-9-11.18-11.78,1.51-2.11,4.13-2.62,6-4.17,1.26-1,2.42-.48,3.62.26,3.78,2.33,7.55,4.67,11.41,6.85,2,1.12,1.81,2.05.15,3.19C525.21,501.85,522.47,504.81,518,504.68Z" transform="translate(-343.37 -364.9)"/><path class="cls-36" d="M530.07,523.09c-4-5.53-8-11.19-15.11-13.13l2.08-1.91c2.59-3.43,6.46-5.09,10.1-7,1.6-.84,4.34-1.67,4.26,1.71-.15,6.72.91,13.48-.58,20.16Z" transform="translate(-343.37 -364.9)"/><path class="cls-37" d="M424.14,465.07c.1-7.9-1-15.88,1.25-23.75,3.64.35,4.63,2.23,4.69,5.41s-1.05,6.3.81,9.22c.26,7.33.37,14.66,0,22a1.6,1.6,0,0,1-1.8-1.81C429.46,471.49,427.08,468.17,424.14,465.07Z" transform="translate(-343.37 -364.9)"/><path class="cls-38" d="M503.85,551c.52,1.21,1.85,2,2,3.38a3.26,3.26,0,0,1-1.73,3.32,3.64,3.64,0,0,1-3.78-.23,2.21,2.21,0,0,1-.94-3c2.93-4.59,1.43-9.66,1.68-14.52.21-4.13.05-8.28,0-12.41,0-3.9.56-7.93-2.19-11.3a3.1,3.1,0,0,1-.68-2.11,2.4,2.4,0,0,1,1.92-2.1c5.35,2.22,4.73,2.15,4.09,7.8a113.13,113.13,0,0,0-.19,20.33c.26,3.66,3.1,1.43,4.94.91,1-.75,1.74-.51,2.32.53a4.91,4.91,0,0,1-.6,2.81c-.43.64-.92,1.1-1.77.72h0C503.1,543.91,503,544,503.85,551Z" transform="translate(-343.37 -364.9)"/><path class="cls-39" d="M528.86,458.63c4-4,7.9-3.63,12.11-.21a68.17,68.17,0,0,0,7.1,4.5c1.11,1.42-.14,2.33-.71,3.39a8.56,8.56,0,0,1-5.79,3.76c-5.92.54-9.26-3.46-12.63-7.29A3.34,3.34,0,0,1,528.86,458.63Z" transform="translate(-343.37 -364.9)"/><path class="cls-40" d="M461,618c2.4-7.51,9.9-11.22,17.16-8.5,2.13.8,4.08,2.08,4.43,4.31.87,5.46.44,10.76-3.63,15.1-1.6-.33-3.37-.32-4.29-2.06-.22-2.23,1-4.14,1.41-6.24s1.06-4.06-.92-5.47-4.1-.76-6,.5a16.33,16.33,0,0,1-2.44,1.69C464.78,617,463,618.52,461,618Z" transform="translate(-343.37 -364.9)"/><path class="cls-41" d="M528.86,458.63c1,5.54,7,10.28,13,10.34-2.51,5.26-8.55,7.53-13.09,4.74-2.33-1.44-5.12-2.33-6.65-4.89-.93-1.35-3.13-1-3.86-3.21C521.21,462.56,525.25,460.9,528.86,458.63Z" transform="translate(-343.37 -364.9)"/><path class="cls-42" d="M450.85,411.91a83.72,83.72,0,0,1,19.41-5.31c4.24.48,6.63,4.65,10.73,5.41l-25,5.77C454.36,415.76,452.5,413.93,450.85,411.91Z" transform="translate(-343.37 -364.9)"/><path class="cls-43" d="M424.14,465.07c4.11,1.69,6.9,4.17,5.91,9.21-.23,1.19-.42,2.65.8,3.65a76,76,0,0,1,.09,12.07c-2.4,1.88-4.58,1.61-5.73-.8-.47-1,.09-2.37-1.08-3.15Z" transform="translate(-343.37 -364.9)"/><path class="cls-44" d="M486,439.87c-1.93-5.48-5.06-9.87-10.84-11.84,1.47-1,2.94-2,4.38-3,1-.7,2.07-1.3,3.18-.62,4.82,3,10.47,4.71,14.14,9.39C493.94,437.11,490.72,439.83,486,439.87Z" transform="translate(-343.37 -364.9)"/><path class="cls-45" d="M562.09,531.18A48.69,48.69,0,0,1,552,547a15.17,15.17,0,0,1-5.16-5c3.71-5.09,6.8-10.58,10-16C561.1,525.17,562.57,527.2,562.09,531.18Z" transform="translate(-343.37 -364.9)"/><path class="cls-46" d="M565.08,475c2,1.15,1.57,5.72,4.82,4.51,2.42-.91.7-4.14,1.08-6.3.42-2.37-.79-4.93.84-7.16a146.08,146.08,0,0,1,0,17c-1.77,3.79-.44,7.79-.8,11.68-.18,1.95.34,4.7-2.37,4.56-2.27-.12-3.81-2-3.7-4.92C565.19,488,565.06,481.49,565.08,475Z" transform="translate(-343.37 -364.9)"/><path class="cls-47" d="M546.84,541.92c2.41,1,4.55,2.22,5.16,5-3.74,5-7.52,9.89-12.93,13.21-.28-2.73-2.29-4-4.34-5.34Z" transform="translate(-343.37 -364.9)"/><path class="cls-48" d="M463.11,476.26c1.27-2.77.78-4.87-1.86-6.75-2.85-2-4.8-5.7-9.21-4.49,6.81-5.21,6.81-5.22,13.94-1,2.13,1.27,4.2,2.65,6.34,3.9,1.33.78,1.39,1.69.56,2.83C470.29,473.81,467.61,476.66,463.11,476.26Z" transform="translate(-343.37 -364.9)"/><path class="cls-49" d="M450.85,411.91c3,.8,5.12,2.44,5.17,5.87l-18,7.1c1.54-3,.77-5.26-2-7C440.57,415.05,445.74,413.55,450.85,411.91Z" transform="translate(-343.37 -364.9)"/><path class="cls-50" d="M475.35,627a5.93,5.93,0,0,1,3.63,1.89c-3.35,4.41-11.84,6-16.58,3.29a5.55,5.55,0,0,1-2.82-5.45c.17-2.93,0-6,1.44-8.75,1.64-.47,2.73-3.35,5-1.13a16,16,0,0,1,.32,2C466.72,627.58,466.72,627.58,475.35,627Z" transform="translate(-343.37 -364.9)"/><path class="cls-51" d="M421,620c1.21,1,3.2.63,4.12,2.22,1.22,7.34,6.67,4.9,11.11,4.8,1,1.26,3.55.37,3.76,2.72a8.7,8.7,0,0,1-6.52,3.19,101.76,101.76,0,0,1-15.36.11C418.83,628.4,419.36,624.08,421,620Z" transform="translate(-343.37 -364.9)"/><path class="cls-52" d="M562.09,531.18a6.19,6.19,0,0,0-5.25-5.25c2.55-6.21,4-12.78,6.08-19.13q-.88,6.27,5.15,8.22A40.67,40.67,0,0,1,562.09,531.18Z" transform="translate(-343.37 -364.9)"/><path class="cls-53" d="M482,446c4,2.81,9.23,4.38,10.08,10.27l-10.77,7.22c-.18-3.34-.32-5.87-.46-8.4C480.2,451.93,478.31,448.61,482,446Z" transform="translate(-343.37 -364.9)"/><path class="cls-54" d="M566,619c-1.72,2-4.39.19-6.38,1.48,1.69,3.17,5.63-.22,7.25,2.71-2.43,2.08-6.39-.15-8.63,3.11,2.15,2.88,5.45-.17,7.7,1.54-.56,1.33-2.29,2.68,0,4-2.23.52-4.45,1.07-6.69,1.56-3.12.68-6.17.22-7.78-2.64-1.71-3-.6-6.08,1.62-8.62C556.66,618.08,561.41,618.87,566,619Z" transform="translate(-343.37 -364.9)"/><path class="cls-55" d="M486.18,471.06c-.71,2.53-.43,4.35,2.86,4.07a5.31,5.31,0,0,1,1.49,0c1.74.37,4.83-1.09,4.83,1.72,0,2.32-2.95,1-4.55,1.32-1,.21-2,.05-3,.2a2.13,2.13,0,0,0-1.95,2.43c0,1.55,1,1.92,2.32,1.94,2.16,0,4.32,0,6.47.11,1.06,0,2,.43,2,1.71s-1.1,1.47-2.13,1.53l-1,0c-11.69.76-11.69.76-11.67-10.67,0-1.49.06-3,.1-4.48A4.14,4.14,0,0,1,486.18,471.06Z" transform="translate(-343.37 -364.9)"/><path class="cls-56" d="M522.12,468.82a15.35,15.35,0,0,1,6,3.29c3.26,2.58,6.27,2.4,9.34-.12,1.39-1.14,3.31-1.48,4.41-3l5.12-3c.41-.43.77-.38,1.06.13.4.78,1.1.82,1.85.75l.33.61a21.84,21.84,0,0,1-10.32,6.25c-4.81,1.55-6.81,4.8-5.92,9.8.61,3.49-1.29,7.24,1,10.56a6,6,0,0,1-5-1.12,2.08,2.08,0,0,0,1.8-2c0-1.16,0-2.32.16-3.46.91-7.62-1.4-13.26-9.36-15.58a13.55,13.55,0,0,1-2.93-1.74C520.63,470,521.64,469.88,522.12,468.82Z" transform="translate(-343.37 -364.9)"/><path class="cls-57" d="M503.77,486.18c-.38,0-1.38-.05-2.36-.16a1.34,1.34,0,0,1-1.21-1.34,1.42,1.42,0,0,1,1.37-1.69,6.51,6.51,0,0,1,1,0c1.65,0,3.7.36,4-1.84s-1.57-2.64-3.25-3.05c-.67-.16-1.23-.5-1.28-1.29a1.42,1.42,0,0,1,1.44-1.63c1.51-.2,3.34-.34,3-2.39-.28-1.87-2.13-1.76-3.63-1.82a1.74,1.74,0,0,1-1.87-2.27c.2-1.35,1.1-1.21,2.21-1.16,5.82.28,7.25,1.83,6.49,7.72a5.08,5.08,0,0,0,.41,2.73C512.24,483.44,510.32,486.1,503.77,486.18Z" transform="translate(-343.37 -364.9)"/><path class="cls-58" d="M482,446c-2,2.82-.34,6.12-1.15,9.09-2.09,1.89.62,5.13-1.94,6.89.12-3.48.15-7,.38-10.45.3-4.38-1.7-7.21-5.55-9-2.41-1.13-4.79-2.32-7.08-3.65a1.84,1.84,0,0,0-2.61.29c-.48-1.74,1.35-2.07,1.93-3.17a35.26,35.26,0,0,1,8.1,4.61c4.23,3,8.14,3,11.89-.73l10.86-6.06c.54,1.2,2.51,1.49,2.1,3.29-1.16-1-2.19-1-3.5-.05C491,440.11,486.51,443,482,446Z" transform="translate(-343.37 -364.9)"/><path class="cls-59" d="M481.74,404.85c7.69-1.62,15.38-2.77,23.26-.63-2.2,7.3-7.45,7.34-13,6.79A39.66,39.66,0,0,0,481.74,404.85Z" transform="translate(-343.37 -364.9)"/><path class="cls-60" d="M481.74,404.85c5-.56,8.23,1.82,10.29,6.16l-11,1c-3,.21-5.87.21-7.65-3.05-.57-1-2-1.59-3.08-2.36A35,35,0,0,1,481.74,404.85Z" transform="translate(-343.37 -364.9)"/><path class="cls-61" d="M480.15,554c2-2.16-.24-5.24,1.83-7.81,2.47,3.43-.47,7.67,2,10.77v20.45c-1.43,1.23-2.42-.53-3.66-.5C478.89,569.28,479.23,561.64,480.15,554Z" transform="translate(-343.37 -364.9)"/><path class="cls-62" d="M440.38,618.14l-3.5-2.23c.59-3.92-.42-6.36-5.07-5.71a4.67,4.67,0,0,1-3.72-1c1-2,2.89-.89,4.34-1.31.65-.18,1.26-.38,1.33-1.18a1.33,1.33,0,0,0-1.38-1.6c-2.76-.1-5.53-.12-8.3-.17,5.48-1.5,11-1,16.47-.05,3.17.55,3.9,3.17,3.69,6.1A9,9,0,0,1,440.38,618.14Z" transform="translate(-343.37 -364.9)"/><path class="cls-63" d="M463.11,476.26c3.66-1.09,6.17-4.26,9.77-5.47l1.41,1.38c-2.72,3.29-6.71,4.8-10.27,6.71-4.35,2.33-6.59,5.17-5.84,10.15a14.78,14.78,0,0,1-.13,3c-1.67,1.21-.87,3-1,4.56-.21,2.09-.81,3.25-3,1.61,1.5,0,1.94-.83,1.92-2.22-.07-3.48-.11-7-.05-10.45a4.93,4.93,0,0,0-2.83-4.82c-1.44-.78-2.79-1.74-4.17-2.62.75-.1,1.56-.08,2-.87a4,4,0,0,1,1.4.37C456.36,480.71,459.9,479.9,463.11,476.26Z" transform="translate(-343.37 -364.9)"/><path class="cls-64" d="M449.19,617.94c1-4.67,2-9.33,2.84-14,.37-2,1.36-2.92,3.34-2.74,2.26.21,2,1.85,1.7,3.32-1.32,5.94-2,12-3.87,17.83C451.61,621.09,451.33,618.67,449.19,617.94Z" transform="translate(-343.37 -364.9)"/><path class="cls-65" d="M449.19,617.94c4.42-1.37,3.54,2.12,4,4.38.1,2.61-1.62,5.45,1.71,7.62,1,.65.32,2.78-1.64,3.29-4.15,1.1-7-1.27-6.33-5.59C447.45,624.37,448.42,621.17,449.19,617.94Z" transform="translate(-343.37 -364.9)"/><path class="cls-66" d="M530.82,522.94c0-6.25.12-12.51,0-18.76,0-3.52-.6-3.73-3.65-2-3.38,2-6.45,4.47-10.18,5.83a1.87,1.87,0,0,0-1.95-1,3.7,3.7,0,0,1,2.9-2.37c3.51-1.6,6.3-4.46,10-5.65,3.28.94,4.34,3,4.06,6.45-.36,4.46-.05,9-.12,13.45C532,520.33,532.57,522,530.82,522.94Z" transform="translate(-343.37 -364.9)"/><path class="cls-67" d="M500.16,512,499,513.83c-2.61,1.78-2.13-.88-2.78-1.92-.07-2.29-.3-4.58-.19-6.86.13-2.9,1.7-2.75,3.55-1.35C502.54,506,502.71,508.54,500.16,512Z" transform="translate(-343.37 -364.9)"/><path class="cls-68" d="M486.18,471.06A3.77,3.77,0,0,1,482,471c-.1-2-.56-4,2.91-3.39,2.87.49,5.91.11,8.87-.05,1.08-.06,2-.22,2.21,1.13s-.42,2.3-1.84,2.35C491.46,471.11,488.82,471.06,486.18,471.06Z" transform="translate(-343.37 -364.9)"/><path class="cls-69" d="M480.15,554c-.21,7.64-.82,15.28.14,22.91-1.45-.49-1.32-1.74-1.32-2.89q0-16.72,0-33.45c0-1,.06-2,1.19-2.5A122.72,122.72,0,0,0,480.15,554Z" transform="translate(-343.37 -364.9)"/><path class="cls-69" d="M475.05,573.87c1.75.28,2.31-.59,2.28-2.22-.22-10.86-.4-21.71-.6-32.56,1.43.52,1.28,1.76,1.28,2.89q0,14.87,0,29.73C478.05,573.77,478.16,576.08,475.05,573.87Z" transform="translate(-343.37 -364.9)"/><path class="cls-22" d="M489.94,545.91a10.41,10.41,0,0,0-2,6.93c.17,5.14.09,10.28,0,15.42,0,1.58.62,3.35-.85,4.7q0-11.34-.11-22.68C487,548.12,487.42,546.33,489.94,545.91Z" transform="translate(-343.37 -364.9)"/><path class="cls-70" d="M588.06,605.05l.13-8.35a22.52,22.52,0,0,1,5,8.3C591.17,606.17,589.64,604.32,588.06,605.05Z" transform="translate(-343.37 -364.9)"/><path class="cls-71" d="M507.85,432.06c3.88,3,1.22,7.46,2.58,11.33,1.95-.54,2.76-2.74,4.59-3.41-.54,2.85-2.84,4.19-5.6,6.59C508.85,441.23,509,436.54,507.85,432.06Z" transform="translate(-343.37 -364.9)"/><path class="cls-72" d="M478.86,646.67a2.55,2.55,0,0,1-2.79,2.29,2.38,2.38,0,0,1-2.51-2.52A2.25,2.25,0,0,1,476,643.9C477.78,643.94,478.64,645,478.86,646.67Z" transform="translate(-343.37 -364.9)"/><path class="cls-73" d="M509,545.06l1.16-1.24a1.71,1.71,0,0,0,.86-2c-.44-.79-1.2-.83-2-.86a3.31,3.31,0,0,1,5.18,0,2.69,2.69,0,0,1,0,4A3.41,3.41,0,0,1,509,545.06Z" transform="translate(-343.37 -364.9)"/><path class="cls-22" d="M490.17,572.93a2,2,0,0,1-1.16-2q0-8.94,0-17.87a2.31,2.31,0,0,1,1.08-2.09C489.87,558.3,489.79,565.62,490.17,572.93Z" transform="translate(-343.37 -364.9)"/><path class="cls-74" d="M613.82,603.75a2.67,2.67,0,0,1-2.73,2.4c-1.7,0-2.34-1.12-2.22-2.63s1-2.57,2.57-2.44A2.42,2.42,0,0,1,613.82,603.75Z" transform="translate(-343.37 -364.9)"/><path class="cls-56" d="M550,485a8.29,8.29,0,0,0,0-1c-.93-5.67-.4-11.34,0-17l-.1-.12c1-.92,2-.67,2,.63.12,5.26.06,10.52,0,15.78C551.94,484.5,551.05,484.89,550,485Z" transform="translate(-343.37 -364.9)"/><path class="cls-69" d="M469,530.93c2.51,1,5.06,1.9,6.83,4.11a1.86,1.86,0,0,0-2,1.21c-2.3-1.42-4.92-2.33-6.95-4.21C467.76,531.94,468.64,531.89,469,530.93Z" transform="translate(-343.37 -364.9)"/><path class="cls-69" d="M487,534a24.45,24.45,0,0,1-6.79,4.17L478,536.11c2.65-.35,4.44-2.55,6.94-3.22C485.32,533.84,486.14,534,487,534Z" transform="translate(-343.37 -364.9)"/><path class="cls-63" d="M443,474.85c-2.16.22-1.94,1.89-1.93,3.31,0,3.92.11,7.84.18,11.76-2.49-4.81-1.06-9.91-.91-14.88C440.36,473.7,442,473.76,443,474.85Z" transform="translate(-343.37 -364.9)"/><path class="cls-75" d="M529.13,592.85a1.87,1.87,0,0,1,1.89,2.29,1.91,1.91,0,0,1-2.24,2,2,2,0,0,1-1.91-2.34C526.94,593.37,527.79,592.81,529.13,592.85Z" transform="translate(-343.37 -364.9)"/><path class="cls-73" d="M503.85,551c-1.4-2.1-1.56-4.66-.07-6.32a3.56,3.56,0,0,1,5.2.43C504,544.81,504,544.81,503.85,551Z" transform="translate(-343.37 -364.9)"/><path class="cls-76" d="M496.19,511.91c.77.87,1.11,2.35,2.78,1.92l-.05,2.34C496.64,515.63,495.52,514.34,496.19,511.91Z" transform="translate(-343.37 -364.9)"/><path class="cls-77" d="M548,466.11,547,466a6.06,6.06,0,0,0,1.09-3.06C551.73,464,549.1,465.05,548,466.11Z" transform="translate(-343.37 -364.9)"/><path class="cls-78" d="M618.67,618.76c1.35-4.77,4.45-6.8,8.16-5.39,1.71.65,2.82,1.78,2.53,3.77s-1.74,2.18-3.34,2.07C623.58,619,621.08,619.62,618.67,618.76Z" transform="translate(-343.37 -364.9)"/><path class="cls-79" d="M436.23,627a7.91,7.91,0,0,1-4.07,1.68c-6.92,1.26-7.79.45-7-6.48,3-2.73,6.69-1.8,9.89-1S436.68,624.82,436.23,627Z" transform="translate(-343.37 -364.9)"/><path class="cls-80" d="M428.09,609.21a11.09,11.09,0,0,1,4.84-.52c1.88.09,4.15-.7,5.37,1.41s-.32,4-1.42,5.81h-9.53C426.85,613.52,428.11,611.41,428.09,609.21Z" transform="translate(-343.37 -364.9)"/><path class="cls-81" d="M565.94,627.87a15.84,15.84,0,0,1-6.27,1.28c-1.59-.09-3.08-.36-3.42-2.18s.94-2.7,2.36-3.36c2.69-1.26,5.48-.77,8.26-.39Z" transform="translate(-343.37 -364.9)"/><path class="cls-82" d="M550,467a28.45,28.45,0,0,1,0,17c-.61-.16-1.53-.12-1.8-.52-2.43-3.54-6.14-6-8.3-9.75C542.74,470.68,546.91,469.64,550,467Z" transform="translate(-343.37 -364.9)"/><path class="cls-76" d="M503.71,516.33c-.2.68-.65,1.16-1.35,1.07a1.25,1.25,0,0,1-1.07-1.37c0-.85.72-1,1.37-.95S503.73,515.6,503.71,516.33Z" transform="translate(-343.37 -364.9)"/><path class="cls-83" d="M503.64,555c-.16.79-.72,1-1.39.84-.5-.08-.89-.39-.81-.94.11-.78.7-.95,1.38-.84A.87.87,0,0,1,503.64,555Z" transform="translate(-343.37 -364.9)"/><path class="cls-84" d="M511,541.86c.73.2,1.89.2,1.59,1.31-.35,1.28-1.53.77-2.45.65A2.12,2.12,0,0,1,511,541.86Z" transform="translate(-343.37 -364.9)"/><path class="cls-85" d="M475.35,627a8.4,8.4,0,0,1-4.84,2.21c-4.26.39-5.95-1-5.48-5.23.26-2.37-.67-5,1-7.13a15.48,15.48,0,0,1,2.35-2.49,7.13,7.13,0,0,1,7.55-.64c2.73,1.36,2.13,3.88,1.59,6.14C476.93,622.28,476.08,624.63,475.35,627Z" transform="translate(-343.37 -364.9)"/><path class="cls-55" d="M350.83,609.64c-1.22,4.35-.73,7.48,4.93,7a8.77,8.77,0,0,1,2.56,0c3,.64,8.32-1.88,8.32,3,0,4-5.07,1.67-7.84,2.27-1.65.36-3.43.08-5.11.34-2.3.35-3.41,1.81-3.35,4.19.07,2.66,1.75,3.31,4,3.34,3.72.05,7.43,0,11.14.18,1.82.07,3.49.74,3.4,2.95s-1.9,2.53-3.68,2.64c-.57,0-1.14,0-1.71.06-20.14,1.32-20.14,1.32-20.11-18.38,0-2.57.12-5.13.18-7.7A7.07,7.07,0,0,1,350.83,609.64Z" transform="translate(-343.37 -364.9)"/><path class="cls-57" d="M381.14,635.67c-.66,0-2.38-.08-4.08-.27a2.31,2.31,0,0,1-2.08-2.31,2.46,2.46,0,0,1,2.36-2.91,9.75,9.75,0,0,1,1.71,0c2.85.06,6.37.6,6.9-3.18.5-3.57-2.7-4.55-5.6-5.25-1.15-.28-2.11-.86-2.2-2.23-.13-1.77.89-2.59,2.48-2.8,2.61-.35,5.76-.59,5.24-4.12-.48-3.22-3.68-3-6.25-3.13s-3.6-1.49-3.23-3.92,1.9-2.07,3.8-2c10,.46,12.5,3.13,11.2,13.29a8.52,8.52,0,0,0,.69,4.69C395.72,631,392.41,635.54,381.14,635.67Z" transform="translate(-343.37 -364.9)"/><path class="cls-68" d="M350.83,609.64c-2.45,1.22-4.88,1.63-7.28-.12-.18-3.5-1-6.86,5-5.84,4.95.84,10.18.18,15.28-.09,1.86-.1,3.46-.38,3.81,1.95s-.74,4-3.17,4C359.93,609.72,355.38,609.63,350.83,609.64Z" transform="translate(-343.37 -364.9)"/><path class="cls-20" d="M410.67,621.11,399.15,620a1.78,1.78,0,0,1-1.7-.94c-.22-.49-.48-1-.17-1.5s.75-.33,1.21-.32c3.42.07,6.75.92,10.15,1.13a5.27,5.27,0,0,0,1.73,0c.35-.76-.68-1.27-.07-2.13a23.93,23.93,0,0,1,4.6,3.53c.48.44,0,.79-.44,1C413.24,621.26,412,622,410.67,621.11Z" transform="translate(-343.37 -364.9)"/></svg>